<?xml version="1.0" encoding="utf-8"?>
<!-- Generator: Adobe Illustrator 23.0.3, SVG Export Plug-In . SVG Version: 6.00 Build 0)  -->
<svg version="1.1" id="Capa_1" xmlns="http://www.w3.org/2000/svg" xmlns:xlink="http://www.w3.org/1999/xlink" x="0px" y="0px"
	 viewBox="0 0 595.28 841.89" style="enable-background:new 0 0 595.28 841.89;" xml:space="preserve">
<style type="text/css">
	.st0{fill:#3990AE;}
	.st1{fill:#A7A9AC;}
	.st2{fill:none;stroke:#737C80;stroke-width:0.5;stroke-miterlimit:10;}
	.st3{fill:#C09769;}
	.st4{fill:#A8BF58;}
	.st5{fill:none;}
	.st6{fill:#FFFFFF;}
	.st7{fill:#3A8FAE;}
	.st8{fill:#BD9569;}
	.st9{fill:#A8BE57;}
	.st10{fill:#A6A7AA;}
</style>
<g>
	<g>
		<polygon class="st0" points="416.87,234.66 422.89,234.66 419.88,227.76 		"/>
		<path class="st0" d="M299.88,229.8c0-1.3-0.86-2.6-2.78-2.6h-4.66v5.19h4.66C299.05,232.39,299.88,231.1,299.88,229.8z"/>
		<path class="st0" d="M256.64,216.87v31.09h182.44v-31.09H256.64z M281.44,240.57l-1.37-3.06h-8.48l-1.39,3.06h-3.31l7.27-16.22
			h3.34l7.28,16.22H281.44z M303.75,240.57h-3.64l-4.73-5.42h-2.94v5.42h-3.06v-16.24c2.57,0,5.14,0.02,7.71,0.02
			c3.82,0.02,5.84,2.57,5.84,5.37c0,2.22-1.02,4.47-4.1,5.1l4.91,5.54V240.57z M322.61,238.02c-1.6,1.83-3.61,2.92-6.46,2.92
			c-6.09,0-8.57-4.01-8.57-8.27c0-4.56,2.85-8.78,8.57-8.78c2.18,0,4.36,0.83,6.02,2.48l-1.9,1.95c-1.09-1.04-2.71-1.62-4.12-1.62
			c-3.48,0-5.58,2.64-5.58,5.98c0,2.66,1.55,5.42,5.58,5.42c1.27,0,2.39-0.28,3.66-1.3v-2.87h-4.15v-2.73h6.95V238.02z
			 M340.43,227.32h-9.1v3.73h8.78v2.85h-8.78v3.66h9.1v3.01h-12.14c0-5.4,0-10.82,0-16.22h12.14V227.32z M360.22,240.57h-1.9v0.02
			l-8.53-10.96v10.94h-3.06v-16.22h2.48l7.95,10.05v-10.08h3.06V240.57z M378.64,227.13h-5.14v13.44h-3.06v-13.44h-5.14v-2.78
			c4.68,0,8.64,0,13.34,0V227.13z M386.77,240.57h-3.03v-16.22h3.03V240.57z M406.58,240.57h-1.9v0.02l-8.53-10.96v10.94h-3.06
			v-16.22h2.48l7.95,10.05v-10.08h3.06V240.57z M425.49,240.57l-1.37-3.06h-8.48l-1.39,3.06h-3.31l7.27-16.22h3.34l7.28,16.22
			H425.49z"/>
		<polygon class="st0" points="272.82,234.66 278.85,234.66 275.83,227.76 		"/>
	</g>
	<path class="st1" d="M281.16,169.49h7.19v38.19h-4.47v0.05l-20.05-25.77v25.72h-7.19v-38.14h5.83l18.69,23.64V169.49z
		 M317.12,180.83h6.38v26.86h-6.27l-0.33-3.92c-1.53,3.16-5.72,4.69-8.72,4.74c-7.95,0.05-13.84-4.85-13.84-14.27
		c0-9.26,6.16-14.11,14-14.06c3.6,0,7.03,1.69,8.55,4.36L317.12,180.83z M300.99,194.23c0,5.12,3.54,8.17,7.95,8.17
		c10.46,0,10.46-16.29,0-16.29C304.53,186.11,300.99,189.11,300.99,194.23z M338.69,173.25v7.63h7.41v5.72h-7.46v11.6
		c0,2.56,1.42,3.81,3.49,3.81c1.04,0,2.23-0.33,3.21-0.82l1.85,5.67c-1.91,0.76-3.49,1.09-5.5,1.14c-5.83,0.22-9.64-3.11-9.64-9.81
		v-11.6h-5.01v-5.72h5.01v-6.92L338.69,173.25z M359.23,180.83v14.06c0,4.09,2.23,7.19,6.48,7.19c4.09,0,6.87-3.43,6.87-7.52v-13.73
		h6.59v26.91h-5.94l-0.44-3.65c-2.78,2.72-5.34,4.03-9.1,4.03c-6.43,0-11.11-4.85-11.11-13.19v-14.11H359.23z M392.57,180.83
		l0.49,3.11c2.07-3.32,4.85-3.81,7.57-3.81c2.78,0,5.45,1.09,6.92,2.56l-3,5.78c-1.36-1.14-2.61-1.74-4.79-1.74
		c-3.49,0-6.7,1.85-6.7,6.81v14.17h-6.65v-26.86H392.57z M432.72,180.83h6.38v26.86h-6.27l-0.33-3.92
		c-1.53,3.16-5.72,4.69-8.72,4.74c-7.95,0.05-13.84-4.85-13.84-14.27c0-9.26,6.16-14.11,14-14.06c3.6,0,7.03,1.69,8.55,4.36
		L432.72,180.83z M416.59,194.23c0,5.12,3.54,8.17,7.95,8.17c10.46,0,10.46-16.29,0-16.29
		C420.13,186.11,416.59,189.11,416.59,194.23z"/>
	<g>
		<path class="st0" d="M235.18,221.06c-8.99,8.72-21,14.34-34.3,15.17c-1.13,0.07-2.27,0.11-3.42,0.11c-1.14,0-2.28-0.04-3.4-0.11
			c-11.66-0.72-22.32-5.13-30.84-12.07c-1.8-1.47-3.5-3.04-5.09-4.72c0.71,2.32,1.63,4.54,2.71,6.66
			c6.82,13.3,20.65,22.4,36.62,22.4c17.63,0,32.67-11.1,38.52-26.69c0.29-0.79,0.57-1.58,0.82-2.39
			C236.28,219.98,235.73,220.53,235.18,221.06z"/>
		<polygon class="st2" points="197.47,233.52 197.47,233.52 197.47,233.52 		"/>
		<path class="st3" d="M216.17,225.64c-5.83,2.15-12.13,3.32-18.71,3.32c-6.57,0-12.87-1.17-18.69-3.32
			c4.75,4.86,11.37,7.88,18.7,7.88c0,0,0,0,0.01,0C204.8,233.52,211.42,230.5,216.17,225.64z"/>
		<path class="st4" d="M238.6,207.17c-0.11-22.62-18.48-40.93-41.13-40.93c-22.65,0-41.02,18.31-41.13,40.94c0,0.06,0,0.13,0,0.19
			c0,0.92,0.04,1.83,0.1,2.74c0.12,1.82,0.35,3.61,0.7,5.35c2.38,2.66,5.02,5.09,7.87,7.23c4.53,3.4,9.6,6.11,15.07,7.96
			c-2.76-2.06-5.13-4.61-7.01-7.51c-0.82-1.26-1.54-2.59-2.16-3.98c-0.14-0.32-0.28-0.64-0.41-0.96c-1.35-3.35-2.1-7.01-2.1-10.84
			c0-16.05,13.01-29.07,29.07-29.07s29.07,13.01,29.07,29.07c0,1.76-0.16,3.48-0.46,5.15c-0.42,2.32-1.11,4.55-2.04,6.65
			c-0.62,1.39-1.34,2.72-2.16,3.98c-1.88,2.9-4.25,5.45-7.01,7.51c7.02-2.39,13.4-6.18,18.79-11.03c1.46-1.31,2.84-2.71,4.15-4.17
			c0.35-1.75,0.58-3.54,0.7-5.35c0.06-0.9,0.1-1.81,0.1-2.73C238.6,207.3,238.6,207.24,238.6,207.17z"/>
		<path class="st1" d="M219.49,221.46c2.15-3.35,3.56-7.21,3.99-11.37l-10.46-9.8l-5.81,3.39l-5.7-11.01l-16.27,22.17l-6.53-3.33
			l-5.83,4.76c0.67,1.84,1.54,3.58,2.57,5.2c6.73,3,14.17,4.67,22.01,4.67C205.31,226.14,212.76,224.47,219.49,221.46z"/>
	</g>
	<rect x="73.95" y="87.39" class="st5" width="447.37" height="242.8"/>
</g>
<g>
	<rect x="197.44" y="393.76" class="st6" width="200.4" height="250.94"/>
	<g>
		<polygon class="st0" points="335.56,587.33 338.87,587.33 337.21,583.54 		"/>
		<path class="st0" d="M271.25,584.66c0-0.71-0.47-1.43-1.53-1.43h-2.56v2.85h2.56C270.79,586.08,271.25,585.37,271.25,584.66z"/>
		<polygon class="st0" points="256.37,587.33 259.68,587.33 258.03,583.54 		"/>
		<path class="st0" d="M247.53,577.55v17.09h100.26v-17.09H247.53z M261.11,590.58l-0.75-1.68h-4.66l-0.76,1.68h-1.82l4-8.91h1.83
			l4,8.91H261.11z M273.37,590.58h-2l-2.6-2.98h-1.62v2.98h-1.68v-8.93c1.41,0,2.83,0.01,4.24,0.01c2.1,0.01,3.21,1.41,3.21,2.95
			c0,1.22-0.56,2.46-2.25,2.8l2.7,3.04V590.58z M283.74,589.18c-0.88,1.01-1.99,1.6-3.55,1.6c-3.35,0-4.71-2.2-4.71-4.55
			c0-2.51,1.57-4.83,4.71-4.83c1.2,0,2.39,0.46,3.31,1.36l-1.04,1.07c-0.6-0.57-1.49-0.89-2.27-0.89c-1.91,0-3.07,1.45-3.07,3.29
			c0,1.46,0.85,2.98,3.07,2.98c0.7,0,1.31-0.15,2.01-0.71v-1.58h-2.28v-1.5h3.82V589.18z M293.54,583.29h-5.01v2.05h4.83v1.57h-4.83
			v2.01h5.01v1.66h-6.67c0-2.97,0-5.95,0-8.91h6.67V583.29z M304.41,590.58h-1.04v0.01l-4.69-6.02v6.01H297v-8.91h1.36l4.37,5.53
			v-5.54h1.68V590.58z M314.54,583.19h-2.83v7.39h-1.68v-7.39h-2.83v-1.53c2.57,0,4.75,0,7.34,0V583.19z M319.01,590.58h-1.67v-8.91
			h1.67V590.58z M329.9,590.58h-1.04v0.01l-4.69-6.02v6.01h-1.68v-8.91h1.36l4.37,5.53v-5.54h1.68V590.58z M340.3,590.58l-0.75-1.68
			h-4.66l-0.76,1.68h-1.82l4-8.91h1.83l4,8.91H340.3z"/>
	</g>
	<path class="st1" d="M261,551.5h3.95v20.98h-2.45v0.03l-11.02-14.16v14.13h-3.95v-20.95h3.2L261,564.53V551.5z M280.75,557.73h3.5
		v14.76h-3.44l-0.18-2.16c-0.84,1.74-3.14,2.57-4.79,2.6c-4.37,0.03-7.6-2.66-7.6-7.84c0-5.09,3.38-7.75,7.69-7.72
		c1.98,0,3.86,0.93,4.7,2.39L280.75,557.73z M271.89,565.09c0,2.81,1.95,4.49,4.37,4.49c5.75,0,5.75-8.95,0-8.95
		C273.84,560.63,271.89,562.28,271.89,565.09z M292.61,553.57v4.19h4.07v3.14h-4.1v6.38c0,1.41,0.78,2.1,1.92,2.1
		c0.57,0,1.23-0.18,1.77-0.45l1.02,3.11c-1.05,0.42-1.92,0.6-3.02,0.63c-3.2,0.12-5.3-1.71-5.3-5.39v-6.38h-2.75v-3.14h2.75v-3.8
		L292.61,553.57z M303.89,557.73v7.72c0,2.25,1.23,3.95,3.56,3.95c2.25,0,3.77-1.89,3.77-4.13v-7.54h3.62v14.79h-3.26l-0.24-2.01
		c-1.53,1.5-2.93,2.21-5,2.21c-3.53,0-6.11-2.66-6.11-7.24v-7.75H303.89z M322.21,557.73l0.27,1.71c1.14-1.83,2.66-2.1,4.16-2.1
		c1.53,0,2.99,0.6,3.8,1.41l-1.65,3.17c-0.75-0.63-1.44-0.96-2.63-0.96c-1.92,0-3.68,1.02-3.68,3.74v7.78h-3.65v-14.76H322.21z
		 M344.27,557.73h3.5v14.76h-3.44l-0.18-2.16c-0.84,1.74-3.14,2.57-4.79,2.6c-4.37,0.03-7.6-2.66-7.6-7.84
		c0-5.09,3.38-7.75,7.69-7.72c1.98,0,3.86,0.93,4.7,2.39L344.27,557.73z M335.41,565.09c0,2.81,1.95,4.49,4.37,4.49
		c5.75,0,5.75-8.95,0-8.95C337.35,560.63,335.41,562.28,335.41,565.09z"/>
	<g>
		<path class="st7" d="M343.55,509.33c-10.95,10.41-25.57,17.13-41.77,18.12c-1.38,0.08-2.76,0.13-4.16,0.13
			c-1.39,0-2.77-0.05-4.14-0.13c-14.2-0.86-27.18-6.12-37.55-14.42c-2.19-1.75-4.26-3.63-6.2-5.64c0.86,2.77,1.98,5.42,3.31,7.96
			c8.3,15.88,25.15,26.75,44.59,26.75c21.47,0,39.78-13.25,46.91-31.87c0.36-0.94,0.69-1.89,0.99-2.85
			C344.88,508.05,344.22,508.7,343.55,509.33z"/>
		<polygon class="st5" points="297.62,524.21 297.63,524.21 297.62,524.21 		"/>
		<path class="st8" d="M320.4,514.8c-7.1,2.57-14.77,3.97-22.78,3.97c-8,0-15.67-1.4-22.76-3.96c5.78,5.8,13.84,9.41,22.77,9.41
			c0,0,0,0,0.01,0C306.55,524.21,314.61,520.6,320.4,514.8z"/>
		<path class="st9" d="M347.7,492.75c-0.13-27.01-22.5-48.87-50.08-48.87c-27.58,0-49.96,21.87-50.08,48.88
			c0,0.08-0.01,0.15-0.01,0.23c0,1.1,0.05,2.19,0.12,3.27c0.15,2.17,0.43,4.31,0.85,6.39c2.9,3.18,6.11,6.07,9.59,8.64
			c5.51,4.06,11.69,7.29,18.35,9.51c-3.36-2.46-6.25-5.5-8.54-8.97c-1-1.51-1.88-3.09-2.63-4.75c-0.17-0.38-0.34-0.76-0.5-1.15
			c-1.64-4-2.56-8.37-2.56-12.95c0-19.17,15.85-34.71,35.4-34.71c19.55,0,35.4,15.54,35.4,34.71c0,2.1-0.2,4.15-0.57,6.15
			c-0.51,2.78-1.35,5.43-2.48,7.94c-0.75,1.66-1.63,3.24-2.63,4.75c-2.29,3.46-5.18,6.5-8.54,8.97c8.55-2.85,16.31-7.37,22.88-13.17
			c1.77-1.57,3.46-3.23,5.05-4.98c0.42-2.09,0.71-4.22,0.85-6.39c0.07-1.08,0.12-2.16,0.12-3.26
			C347.71,492.91,347.7,492.83,347.7,492.75z"/>
		<path class="st10" d="M324.44,509.82c2.61-4,4.33-8.61,4.85-13.58l-12.74-11.7l-7.08,4.04l-6.94-13.14l-19.81,26.47l-7.95-3.98
			l-7.09,5.69c0.81,2.19,1.87,4.27,3.14,6.2c8.19,3.58,17.26,5.58,26.81,5.58C307.17,515.4,316.24,513.4,324.44,509.82z"/>
	</g>
</g>
</svg>
